<?xml version="1.0" standalone="no"?>
<!DOCTYPE svg PUBLIC "-//W3C//DTD SVG 20010904//EN"
 "http://www.w3.org/TR/2001/REC-SVG-20010904/DTD/svg10.dtd">
<svg version="1.0" xmlns="http://www.w3.org/2000/svg"
 width="2139.000000pt" height="2139.000000pt" viewBox="0 0 2139.000000 2139.000000"
 preserveAspectRatio="xMidYMid meet">
<metadata>
Created by potrace 1.14, written by Peter Selinger 2001-2017
</metadata>
<g transform="translate(0.000000,2139.000000) scale(0.100000,-0.100000)"
fill="#000000" stroke="none">
<path d="M4590 14003 c0 -4 -54 -8 -120 -8 -66 0 -120 -3 -120 -8 0 -4 -6 -5
-12 0 -17 10 -38 13 -38 5 0 -4 -24 -7 -53 -8 -28 0 -77 -4 -107 -8 -70 -9
-150 -18 -172 -19 -10 -1 -18 -5 -18 -10 0 -5 -6 -4 -14 2 -10 9 -16 9 -21 1
-4 -6 -13 -9 -21 -6 -7 3 -16 1 -19 -4 -3 -4 -16 -7 -30 -5 -14 1 -25 -2 -25
-7 0 -6 -7 -8 -15 -5 -8 4 -17 2 -20 -3 -3 -4 -16 -7 -30 -5 -14 1 -25 -1 -25
-5 0 -4 -10 -6 -22 -5 -13 1 -34 -5 -46 -13 -13 -7 -26 -11 -29 -9 -3 3 -22
-1 -44 -8 -21 -8 -39 -12 -39 -8 0 3 -6 1 -12 -5 -7 -5 -29 -13 -48 -18 -49
-11 -49 -11 -55 -14 -3 -1 -9 -4 -15 -5 -5 -1 -11 -3 -12 -5 -2 -1 -11 -3 -20
-5 -9 -2 -31 -10 -48 -18 -17 -9 -28 -12 -25 -7 5 8 -26 -5 -98 -42 -10 -5
-22 -6 -27 -3 -6 4 -10 1 -10 -4 0 -6 -6 -11 -12 -11 -7 0 -35 -11 -62 -25
-27 -13 -53 -22 -58 -19 -4 3 -8 0 -8 -5 0 -6 -9 -11 -21 -11 -11 0 -17 -4
-14 -10 6 -10 -15 -14 -44 -11 -7 2 -10 -2 -6 -8 5 -10 -7 -15 -27 -12 -5 0
-8 -4 -8 -10 0 -5 -4 -8 -9 -5 -5 4 -11 3 -13 -2 -1 -4 -29 -21 -60 -36 -32
-16 -58 -33 -58 -38 0 -5 -4 -7 -9 -3 -5 3 -16 -1 -24 -9 -8 -8 -17 -12 -21
-9 -3 4 -6 1 -6 -6 0 -7 -4 -10 -9 -7 -5 3 -11 -1 -15 -9 -3 -8 -10 -15 -16
-15 -12 0 -90 -51 -113 -74 -8 -8 -17 -13 -19 -10 -3 2 -17 -7 -31 -20 -15
-14 -27 -23 -27 -20 0 3 -7 -1 -15 -8 -31 -28 -45 -39 -45 -34 0 3 -19 -12
-42 -34 -23 -21 -47 -36 -53 -33 -5 4 -7 3 -3 -2 8 -9 -34 -45 -52 -45 -6 0
-9 -4 -5 -9 3 -5 -4 -12 -15 -16 -11 -4 -18 -11 -15 -16 4 -5 2 -9 -4 -9 -6 0
-22 -12 -36 -27 -14 -15 -25 -24 -25 -18 0 5 -11 -7 -25 -26 -14 -19 -28 -33
-30 -31 -3 1 -6 -1 -7 -5 -6 -15 -53 -59 -60 -55 -5 2 -8 -1 -8 -6 0 -6 -23
-33 -50 -61 -27 -28 -50 -54 -50 -57 0 -3 -12 -16 -26 -29 -15 -14 -24 -25
-21 -25 4 0 -6 -13 -21 -29 -15 -15 -36 -40 -46 -55 -18 -25 -39 -51 -66 -83
-6 -7 -8 -13 -4 -13 4 0 -5 -11 -20 -25 -15 -14 -24 -25 -20 -25 3 0 1 -7 -6
-15 -7 -8 -10 -15 -6 -15 3 0 -3 -10 -14 -22 -46 -52 -51 -60 -46 -65 3 -3 0
-11 -8 -17 -22 -18 -172 -303 -168 -318 1 -5 -3 -8 -8 -8 -5 0 -9 -3 -8 -7 1
-5 -4 -20 -10 -35 -7 -16 -17 -40 -24 -55 -6 -16 -12 -30 -13 -33 0 -3 -6 -15
-13 -27 -7 -13 -10 -23 -6 -23 3 0 2 -6 -4 -12 -6 -7 -11 -17 -12 -23 -4 -17
-11 -38 -27 -80 -9 -22 -17 -47 -17 -55 -1 -9 -5 -21 -10 -28 -4 -6 -4 -12 0
-12 3 0 1 -7 -6 -15 -7 -8 -10 -15 -6 -15 3 0 1 -12 -5 -27 -14 -35 -22 -71
-23 -100 -1 -13 -5 -23 -10 -23 -4 0 -6 -7 -2 -15 3 -8 1 -15 -5 -15 -6 0 -7
-5 -4 -10 4 -6 2 -16 -3 -23 -5 -7 -8 -22 -7 -34 1 -13 -2 -23 -7 -23 -5 0 -6
-4 -3 -10 3 -5 3 -15 -1 -21 -4 -7 -8 -28 -10 -48 -1 -20 -5 -47 -8 -61 -3
-14 -9 -54 -12 -90 -3 -36 -10 -70 -15 -76 -5 -6 -6 -14 -2 -18 12 -11 12 -40
1 -53 -7 -9 -7 -13 1 -13 7 0 9 -5 4 -12 -13 -21 -12 -108 1 -108 6 0 5 -4 -3
-9 -7 -5 -11 -13 -7 -19 3 -6 0 -13 -6 -15 -8 -3 -9 -6 -2 -6 7 -1 10 -15 7
-37 -3 -27 -1 -34 9 -28 10 6 10 5 1 -7 -6 -8 -11 -38 -9 -67 1 -28 -2 -52 -7
-52 -4 0 -5 -5 -1 -11 11 -19 10 -269 -1 -269 -7 0 -7 -3 0 -8 6 -4 10 -54 9
-115 0 -59 3 -110 8 -113 5 -3 5 -11 1 -17 -11 -17 -11 -60 0 -74 6 -8 6 -13
0 -13 -10 0 -10 -40 0 -57 4 -7 3 -14 -3 -18 -6 -4 -7 -12 -3 -18 7 -11 14
-69 16 -149 1 -21 4 -38 7 -38 3 0 5 -18 5 -40 0 -22 3 -40 8 -40 4 0 5 -4 2
-10 -3 -5 -3 -15 1 -21 3 -6 8 -30 10 -53 4 -40 11 -81 14 -81 3 0 10 -49 11
-67 0 -10 5 -18 10 -18 6 0 8 -4 5 -9 -3 -5 3 -40 13 -79 10 -39 16 -74 13
-77 -3 -3 -1 -5 5 -5 6 0 14 -17 18 -37 3 -21 13 -49 22 -62 11 -17 12 -21 2
-15 -11 6 -12 5 -3 -7 6 -8 16 -33 24 -56 7 -24 17 -43 21 -43 4 0 6 -9 4 -20
-2 -11 1 -20 6 -20 6 0 8 -4 4 -9 -3 -5 -1 -12 5 -16 5 -3 10 -15 10 -26 0
-10 5 -19 12 -19 6 0 8 -3 5 -7 -4 -3 -2 -12 3 -19 6 -6 13 -23 15 -35 3 -13
9 -25 15 -27 5 -2 10 -10 10 -18 0 -16 20 -56 33 -65 5 -3 9 -10 10 -15 2 -21
22 -64 30 -64 4 0 5 -4 2 -10 -3 -5 -1 -10 5 -10 6 0 8 -4 5 -10 -3 -5 -1 -10
4 -10 6 0 11 -6 11 -13 0 -7 8 -22 18 -33 9 -11 18 -26 20 -33 3 -15 43 -73
57 -83 6 -4 6 -8 2 -8 -5 0 -2 -7 5 -15 30 -34 36 -43 31 -49 -3 -3 2 -8 11
-12 9 -3 16 -10 16 -15 0 -10 10 -24 43 -60 9 -10 18 -24 20 -31 1 -6 13 -23
27 -37 14 -14 32 -35 40 -47 58 -81 346 -376 395 -404 5 -3 19 -14 31 -25 44
-41 70 -62 104 -86 19 -13 43 -33 52 -43 10 -10 18 -15 18 -10 0 5 4 4 8 -2
10 -16 188 -134 201 -134 6 0 11 -4 11 -9 0 -5 8 -11 18 -15 9 -3 40 -19 67
-36 28 -16 66 -38 85 -47 19 -9 38 -22 42 -27 4 -6 8 -7 8 -2 0 5 7 3 16 -5 8
-7 39 -23 67 -35 137 -58 162 -70 165 -76 2 -5 14 -8 26 -8 12 0 26 -4 31 -9
6 -5 66 -28 135 -51 69 -23 134 -45 145 -50 27 -12 274 -70 360 -85 17 -3 37
-8 45 -10 15 -4 76 -12 155 -21 22 -2 54 -6 70 -9 168 -25 1242 -26 1372 -1
12 3 50 7 84 11 35 4 70 10 80 15 9 5 19 7 22 4 3 -3 31 0 64 6 32 6 69 13 83
16 14 3 33 7 42 10 10 3 30 8 45 11 42 8 58 11 58 13 0 1 7 3 15 5 61 15 168
47 182 55 10 6 26 10 36 10 10 0 22 4 28 10 5 5 18 11 29 13 11 2 29 8 40 12
11 4 52 20 90 35 91 36 284 129 360 175 33 19 72 41 88 47 15 7 27 16 27 20 0
4 6 8 14 8 8 0 21 6 28 14 8 7 28 21 46 30 18 9 32 21 32 27 0 6 4 8 9 4 6 -3
14 3 20 12 6 10 11 14 11 10 0 -4 6 -3 13 2 51 43 76 61 81 61 4 0 21 13 39
30 18 16 35 30 40 30 4 0 16 8 26 18 50 46 81 71 81 66 0 -3 22 17 49 44 28
28 51 48 53 47 2 -2 3 78 3 178 0 110 -4 185 -10 189 -7 5 -7 8 0 8 6 0 10 35
10 85 0 50 -4 85 -10 85 -7 0 -7 3 0 8 12 8 15 92 3 92 -4 0 -7 4 -5 8 2 7
-41 67 -70 97 -7 7 -9 15 -6 19 4 3 0 6 -7 6 -7 0 -11 2 -8 5 5 5 -18 35 -68
90 -12 13 -19 26 -16 29 3 3 0 6 -6 6 -7 0 -12 7 -12 15 0 8 -5 15 -10 15 -6
0 -14 8 -17 18 -4 9 -17 27 -29 38 -13 12 -20 25 -17 28 4 3 1 6 -5 6 -7 0
-12 6 -12 14 0 8 -7 17 -16 20 -9 4 -14 9 -11 12 9 9 -17 33 -28 26 -5 -3 -7
-2 -3 3 8 8 -31 67 -64 96 -10 9 -15 19 -11 23 3 3 1 6 -6 6 -7 0 -10 4 -7 8
3 5 -4 15 -15 22 -10 8 -19 19 -19 24 0 5 -11 19 -24 31 -14 13 -22 26 -19 29
4 3 2 6 -3 6 -5 0 -20 18 -34 40 -14 22 -28 40 -32 40 -5 0 -8 7 -8 16 0 8 -4
12 -10 9 -5 -3 -10 3 -10 15 0 12 -4 18 -10 15 -5 -3 -10 1 -10 9 0 8 -9 21
-19 28 -11 8 -21 20 -23 28 -2 8 -11 22 -20 31 -10 9 -18 21 -18 27 0 6 -9 16
-20 22 -11 6 -20 15 -20 21 0 5 -9 19 -20 31 -11 12 -20 28 -20 35 0 8 -4 11
-10 8 -6 -3 -10 -1 -10 4 0 10 -19 36 -47 66 -7 8 -13 16 -13 20 0 4 -6 13
-14 21 -8 7 -16 18 -18 24 -2 7 -563 16 -613 9 -5 -1 -17 -1 -25 0 -9 1 -25
-7 -35 -17 -11 -9 -54 -44 -95 -77 -41 -33 -80 -67 -87 -75 -7 -8 -13 -10 -13
-5 0 7 -3 7 -8 0 -9 -13 -79 -65 -87 -65 -3 0 -15 -9 -27 -20 -12 -11 -28 -20
-35 -20 -7 0 -13 -4 -13 -10 0 -5 -5 -10 -11 -10 -6 0 -23 -9 -38 -19 -15 -11
-34 -21 -41 -23 -7 -2 -22 -10 -32 -18 -10 -8 -21 -13 -25 -12 -3 2 -9 0 -12
-5 -9 -13 -161 -84 -183 -86 -10 -1 -18 -5 -18 -10 0 -4 -4 -5 -10 -2 -5 3
-10 1 -10 -4 0 -6 -3 -10 -7 -10 -5 1 -11 0 -15 -1 -9 -3 -13 -4 -53 -15 -16
-4 -34 -10 -40 -13 -5 -4 -16 -7 -25 -8 -8 -1 -44 -10 -80 -19 -43 -10 -66
-12 -68 -5 -2 5 -8 8 -13 5 -4 -3 -34 1 -66 10 -32 9 -65 18 -73 20 -106 28
-370 148 -370 167 0 4 -3 7 -7 6 -12 -3 -83 43 -83 54 0 5 -4 7 -8 4 -5 -3
-24 9 -43 26 -19 17 -35 30 -37 29 -2 -1 -22 14 -44 33 -22 20 -45 36 -50 36
-5 0 -6 5 -3 10 3 6 1 10 -5 10 -7 0 -37 25 -67 55 -30 30 -53 55 -50 55 2 0
-12 17 -32 38 -20 20 -45 50 -56 66 -11 16 -28 37 -37 48 -10 10 -18 23 -18
28 0 6 -5 10 -11 10 -5 0 -7 5 -4 10 3 6 2 10 -2 10 -5 0 -20 21 -33 48 -14
26 -28 49 -33 50 -4 2 -5 8 -1 13 3 5 0 9 -5 9 -6 0 -11 7 -11 15 0 8 -5 15
-12 15 -6 0 -8 3 -5 7 4 3 2 12 -4 20 -6 7 -8 13 -3 13 5 0 4 4 -3 8 -6 4 -13
14 -15 22 -2 8 -8 20 -15 27 -6 7 -10 21 -9 30 2 10 -3 24 -11 31 -7 8 -11 18
-8 23 4 5 0 9 -7 9 -9 0 -9 3 2 10 9 6 10 10 3 10 -11 0 -39 74 -35 92 1 4 -5
19 -13 35 -9 17 -11 29 -5 31 6 2 7 9 3 15 -11 17 -11 57 0 57 4 0 5 5 2 10
-3 6 -3 16 2 23 4 6 9 18 10 25 2 6 4 18 6 25 1 6 6 18 10 25 5 6 5 17 2 22
-3 6 -1 10 5 10 6 0 10 6 9 13 -1 6 1 20 4 30 4 9 10 25 14 35 3 9 5 20 5 25
-1 4 3 7 9 7 5 0 7 5 4 10 -3 6 -1 10 5 10 6 0 9 4 5 9 -3 5 1 15 8 23 7 7 14
16 15 21 9 40 15 56 22 52 5 -3 11 8 15 25 4 16 11 30 16 30 5 0 9 7 9 15 0 8
4 15 10 15 5 0 6 7 3 17 -4 11 -3 14 5 9 7 -4 12 -1 12 8 0 9 5 16 10 16 6 0
10 7 10 15 0 8 5 15 11 15 5 0 8 4 4 9 -3 6 3 14 12 20 10 6 15 11 11 11 -4 0
3 11 15 24 32 34 66 76 62 76 -2 0 27 32 65 70 38 39 73 70 79 70 6 0 11 6 11
13 1 6 26 30 56 52 53 39 88 65 110 84 6 5 26 17 45 26 19 10 36 21 39 25 3 4
41 27 85 50 44 23 85 46 91 51 6 5 14 6 18 2 4 -4 10 -3 14 3 8 12 179 74 205
74 9 0 17 5 17 12 0 6 2 9 5 6 3 -2 37 3 76 13 47 12 79 15 94 9 13 -5 25 -7
27 -4 3 2 23 -2 46 -10 22 -8 43 -12 46 -9 3 4 6 1 6 -4 0 -6 8 -10 18 -9 9 2
24 -1 32 -5 14 -7 48 -21 60 -24 9 -2 114 -43 150 -58 19 -8 39 -15 44 -15 5
0 13 -7 18 -16 5 -8 15 -13 23 -10 8 4 15 2 15 -4 0 -9 33 -22 46 -19 3 1 10
-6 15 -16 6 -9 14 -15 20 -12 5 4 9 1 9 -4 0 -6 6 -11 13 -11 12 0 81 -42 129
-79 14 -12 31 -21 37 -21 6 0 11 -4 11 -10 0 -5 7 -10 15 -10 8 0 15 -4 15
-10 0 -5 5 -10 11 -10 7 0 20 -10 30 -22 11 -11 19 -19 19 -16 0 3 21 -14 48
-38 26 -24 52 -44 58 -44 7 0 14 -6 17 -13 4 -11 67 -14 331 -13 l326 1 23 25
c12 14 36 43 52 65 17 21 37 47 45 56 32 36 41 49 35 49 -3 0 4 11 17 24 29
30 47 52 78 96 13 19 34 45 46 56 13 12 21 24 18 27 -3 3 7 14 22 26 15 11 24
21 20 21 -4 0 20 33 53 74 34 41 61 79 61 85 0 6 4 11 8 11 5 0 24 21 42 48
18 26 41 54 49 63 9 9 25 29 36 44 11 16 26 34 33 41 6 7 12 15 12 18 0 3 10
16 23 29 12 13 29 33 37 46 8 13 22 31 31 41 8 10 24 31 35 45 10 15 24 32 29
39 6 6 23 29 39 51 17 22 32 42 35 45 37 33 69 112 39 94 -10 -6 -10 -4 -3 7
12 16 13 167 2 186 -4 6 -2 15 4 18 5 4 8 13 5 21 -3 8 -1 26 4 40 6 14 6 23
1 20 -10 -7 -22 30 -12 39 11 11 7 134 -4 127 -7 -4 -7 -1 0 9 9 12 11 60 6
137 0 13 -5 21 -10 18 -5 -3 -17 5 -27 19 -10 13 -21 22 -26 19 -4 -3 -8 1 -8
9 0 7 -12 20 -27 28 -16 8 -40 26 -55 41 -14 16 -31 28 -36 28 -6 0 -23 14
-39 30 -15 17 -34 30 -41 30 -7 0 -15 6 -18 14 -3 8 -17 17 -30 20 -14 4 -22
10 -20 15 3 5 -8 14 -24 21 -17 7 -30 17 -30 23 0 6 -3 8 -6 4 -4 -3 -12 -1
-20 6 -32 29 -44 37 -52 37 -4 0 -17 8 -28 18 -11 9 -44 30 -74 46 -30 16 -65
37 -78 47 -13 10 -36 21 -52 24 -17 4 -30 10 -30 14 0 5 -24 19 -54 32 -30 13
-53 26 -50 31 2 4 -5 5 -16 3 -11 -2 -20 0 -20 5 0 7 -27 20 -50 25 -3 1 -31
13 -63 28 -32 15 -64 27 -72 27 -8 0 -15 5 -15 10 0 6 -12 10 -26 10 -16 0
-23 4 -18 12 4 6 3 8 -3 5 -5 -3 -20 0 -34 6 -34 18 -112 41 -126 38 -7 -1
-13 2 -13 7 0 7 -69 29 -112 36 -7 1 -18 5 -25 9 -6 4 -23 8 -37 9 -14 1 -26
5 -26 8 0 5 -18 9 -57 12 -7 1 -13 4 -13 7 0 3 -19 7 -42 9 -23 1 -45 6 -48
11 -3 4 -14 8 -25 8 -43 2 -93 10 -104 17 -6 4 -15 4 -21 1 -5 -3 -10 -2 -10
2 0 5 -15 9 -32 10 -18 1 -60 5 -93 9 -33 4 -70 7 -82 8 -13 0 -23 4 -23 8 0
5 -9 4 -20 -2 -11 -6 -20 -7 -20 -3 0 5 -45 8 -100 8 -60 0 -100 4 -100 10 0
6 -4 4 -9 -3 -4 -8 -12 -14 -16 -14 -4 0 -12 6 -16 14 -6 8 -9 9 -9 1 0 -12
-17 -12 -37 0 -6 4 -15 2 -19 -4 -4 -8 -9 -7 -15 2 -6 9 -9 10 -9 2 0 -12 -17
-12 -37 0 -6 4 -15 2 -19 -4 -4 -8 -9 -7 -15 2 -6 9 -9 10 -9 2 0 -12 -17 -12
-37 0 -6 4 -15 2 -19 -4 -4 -8 -9 -7 -15 2 -6 9 -9 10 -9 2 0 -13 -18 -12 -39
1 -8 5 -12 5 -8 0 6 -10 -186 -10 -202 1 -6 3 -11 3 -11 -2z"/>
<path d="M7482 13910 c-10 -8 -8 -34 3 -42 7 -5 7 -8 0 -8 -5 0 -10 -23 -10
-50 -1 -28 3 -50 8 -50 4 0 5 -5 1 -12 -10 -15 -13 -87 -5 -93 6 -3 6 -60 1
-60 -1 0 -3 -8 -5 -17 -2 -10 1 -18 6 -18 6 0 7 -6 2 -12 -12 -21 -13 -41 0
-57 10 -12 9 -13 -3 -6 -13 8 -13 7 -1 -8 7 -9 10 -17 5 -17 -5 0 -9 -23 -9
-50 -1 -28 3 -50 8 -50 4 0 5 -5 1 -12 -12 -19 -11 -78 1 -78 7 0 7 -3 0 -8
-12 -9 -15 -92 -3 -92 5 0 6 -6 1 -12 -12 -21 -12 -38 0 -38 8 0 8 -3 2 -8 -5
-4 -10 -14 -10 -22 0 -8 5 -18 10 -22 7 -5 7 -8 0 -8 -5 0 -10 -23 -10 -50 -1
-28 3 -50 8 -50 6 0 6 -5 1 -12 -5 -7 -8 -29 -7 -48 2 -19 3 -43 3 -52 0 -10
0 -29 0 -43 0 -14 0 -31 1 -37 0 -7 -2 -25 -5 -40 -4 -15 -2 -30 4 -33 6 -4 7
-12 3 -18 -12 -19 -12 -37 -1 -37 6 0 4 -7 -3 -17 -12 -15 -12 -16 1 -8 12 7
13 6 4 -6 -14 -18 -14 -49 0 -49 7 0 7 -3 1 -8 -5 -4 -10 -14 -10 -22 0 -8 5
-18 10 -22 7 -5 7 -8 0 -8 -5 0 -10 -23 -10 -50 -1 -28 3 -50 8 -50 4 0 5 -5
1 -12 -12 -19 -11 -78 1 -78 7 0 7 -3 0 -8 -13 -9 -14 -65 0 -74 6 -5 6 -8 0
-8 -12 0 -13 -70 -1 -89 7 -11 6 -12 -5 -6 -12 8 -12 6 0 -8 7 -9 10 -17 5
-17 -5 0 -9 -23 -9 -50 -1 -28 3 -50 8 -50 4 0 5 -5 1 -12 -11 -18 -12 -68 -2
-68 5 0 6 -5 2 -12 -12 -19 -11 -78 1 -78 7 0 7 -3 0 -8 -9 -6 -12 -63 -5 -84
2 -9 3 -57 0 -60 -7 -11 -6 -38 1 -38 6 0 7 -6 2 -12 -12 -21 -13 -41 0 -57
10 -12 9 -13 -3 -6 -13 8 -13 7 -1 -8 7 -9 10 -17 5 -17 -5 0 -9 -23 -9 -50
-1 -28 3 -50 8 -50 4 0 5 -5 1 -12 -12 -19 -11 -78 1 -78 7 0 7 -3 0 -8 -13
-9 -14 -65 0 -74 6 -5 6 -8 0 -8 -12 0 -13 -70 -1 -89 7 -11 6 -12 -5 -6 -12
8 -12 6 0 -8 7 -9 10 -17 5 -17 -5 0 -9 -23 -9 -50 -1 -28 3 -50 8 -50 4 0 5
-5 1 -12 -11 -18 -12 -68 -2 -68 5 0 6 -5 2 -12 -12 -19 -11 -78 1 -78 7 0 7
-3 0 -8 -9 -6 -12 -63 -5 -84 2 -9 3 -57 0 -60 -7 -11 -6 -38 1 -38 6 0 7 -6
2 -12 -12 -21 -13 -41 0 -57 10 -12 9 -13 -3 -6 -13 8 -13 7 -1 -8 7 -9 10
-17 5 -17 -5 0 -9 -23 -9 -50 -1 -28 3 -50 8 -50 4 0 5 -5 1 -12 -12 -19 -11
-78 1 -78 7 0 7 -3 0 -8 -13 -9 -14 -65 0 -74 6 -5 6 -8 0 -8 -12 0 -13 -70
-1 -89 7 -11 6 -12 -5 -6 -12 8 -12 6 0 -8 7 -9 10 -17 5 -17 -5 0 -9 -23 -9
-50 -1 -28 3 -50 8 -50 4 0 5 -5 1 -12 -11 -18 -12 -68 -2 -68 5 0 6 -5 2 -12
-12 -19 -11 -78 1 -78 7 0 7 -3 0 -8 -9 -6 -12 -63 -5 -84 2 -9 3 -57 0 -60
-7 -11 -6 -38 1 -38 6 0 7 -6 2 -12 -12 -21 -13 -41 0 -57 10 -12 9 -13 -3 -6
-13 8 -13 7 -1 -8 7 -9 10 -17 5 -17 -5 0 -9 -23 -9 -50 -1 -28 3 -50 8 -50 4
0 5 -5 1 -12 -12 -19 -11 -78 1 -78 7 0 7 -3 0 -8 -13 -9 -14 -65 0 -74 6 -5
6 -8 0 -8 -12 0 -13 -70 -1 -89 7 -11 6 -12 -5 -6 -12 8 -12 6 0 -8 7 -9 10
-17 5 -17 -5 0 -9 -23 -9 -50 -1 -28 3 -50 8 -50 4 0 5 -5 1 -12 -11 -18 -12
-68 -2 -68 5 0 6 -5 2 -12 -12 -19 -11 -78 1 -78 7 0 7 -3 0 -8 -11 -8 -14
-71 -3 -87 4 -6 3 -17 -2 -25 -4 -7 -4 -23 0 -35 5 -14 4 -27 -2 -33 -8 -8 -8
-15 0 -25 7 -8 9 -16 7 -19 -12 -12 -13 -48 -2 -48 8 0 8 -3 2 -8 -13 -9 -13
-105 0 -114 6 -5 6 -8 0 -8 -5 0 -10 -24 -10 -54 0 -30 3 -52 8 -49 4 2 7 -1
7 -6 0 -6 -3 -11 -7 -11 -5 0 -8 -23 -8 -50 -1 -28 3 -50 8 -50 4 0 5 -5 1
-12 -11 -17 -12 -98 -1 -98 4 0 5 -6 0 -12 -12 -21 -12 -38 0 -38 8 0 8 -3 2
-8 -5 -4 -10 -14 -10 -22 0 -8 5 -18 10 -22 7 -5 7 -8 0 -8 -5 0 -10 -23 -10
-50 -1 -28 3 -50 8 -50 4 0 5 -5 1 -12 -12 -18 -11 -78 0 -78 7 0 8 -3 1 -8
-12 -9 -13 -72 -1 -91 7 -11 6 -12 -5 -6 -12 8 -12 6 0 -8 7 -9 10 -17 5 -17
-5 0 -9 -23 -9 -50 -1 -28 3 -50 8 -50 4 0 5 -5 1 -12 -12 -18 -11 -78 0 -78
7 0 8 -3 1 -8 -12 -9 -13 -72 -1 -91 7 -11 6 -12 -5 -6 -12 8 -12 6 0 -8 7 -9
10 -17 5 -17 -5 0 -9 -23 -9 -50 -1 -28 3 -50 8 -50 4 0 5 -5 1 -12 -12 -18
-11 -78 0 -78 7 0 8 -3 1 -8 -12 -8 -14 -77 -3 -88 4 -4 3 -13 -2 -19 -8 -9
-5 -14 7 -17 10 -2 518 -3 1128 -3 l1110 0 0 1163 c0 639 4 1162 8 1162 5 0 5
6 0 13 -4 6 7 1 24 -13 18 -14 32 -31 32 -39 1 -8 3 -12 7 -9 3 3 55 -43 116
-103 60 -60 114 -109 118 -109 5 0 12 -9 15 -20 4 -11 11 -18 16 -15 5 4 9 -1
9 -9 0 -9 4 -16 9 -16 5 0 51 -40 101 -90 50 -49 96 -90 102 -90 6 0 9 -3 5
-6 -6 -6 63 -74 76 -74 4 0 7 -7 7 -15 0 -8 4 -15 8 -15 5 0 57 -47 116 -105
59 -58 112 -105 117 -105 6 0 7 -4 4 -10 -3 -5 2 -10 11 -10 10 0 15 -2 12 -6
-5 -5 13 -24 104 -108 20 -18 34 -36 31 -40 -4 -3 -1 -6 5 -6 6 0 59 -47 117
-104 58 -56 105 -102 105 -101 0 1 65 -62 144 -139 79 -78 167 -163 195 -189
28 -27 51 -53 51 -58 0 -5 3 -8 8 -7 4 2 63 -52 131 -120 69 -67 126 -122 127
-122 1 0 56 -53 123 -119 66 -65 123 -116 126 -113 3 3 5 -2 5 -11 0 -9 3 -17
8 -17 12 0 121 -108 115 -114 -4 -3 1 -6 11 -6 9 0 21 -10 26 -22 5 -13 9 -19
9 -15 1 4 31 -22 67 -58 l67 -65 572 0 c526 0 574 1 586 17 12 14 12 16 0 8
-11 -6 -13 -4 -8 7 3 9 0 21 -6 28 -9 10 -9 11 1 6 7 -4 12 -2 12 6 0 8 -6 20
-12 27 -9 9 -9 12 -1 7 8 -4 11 4 9 26 -1 18 3 39 9 47 7 11 7 13 -2 8 -8 -5
-11 4 -9 30 2 21 -2 44 -8 52 -8 11 -8 13 0 8 12 -7 14 106 2 118 -4 4 1 19
10 33 9 15 12 23 6 20 -7 -5 -10 23 -8 90 1 60 -3 102 -10 111 -8 11 -8 13 0
8 14 -8 13 70 0 92 -6 9 -5 12 1 8 11 -7 12 107 1 118 -4 4 1 19 10 33 9 15
12 23 6 20 -7 -5 -10 23 -8 90 1 60 -3 102 -10 111 -8 11 -8 13 0 8 14 -8 13
70 0 92 -6 9 -5 12 1 8 11 -7 12 107 1 118 -4 4 1 19 10 33 9 15 12 23 6 20
-7 -5 -10 23 -8 90 1 60 -3 102 -10 111 -8 11 -8 13 0 8 14 -8 13 70 0 92 -6
9 -5 12 1 8 11 -7 12 107 1 118 -4 4 1 19 10 33 9 15 12 23 6 20 -7 -5 -10 23
-8 90 1 60 -3 102 -10 111 -7 10 -7 13 0 8 13 -8 13 131 0 152 -6 9 -5 12 1 8
13 -8 12 71 -1 92 -6 9 -5 12 1 8 11 -7 12 107 1 118 -4 4 1 19 10 33 9 15 12
23 6 20 -7 -5 -10 23 -8 90 1 60 -3 102 -10 111 -7 10 -7 13 0 8 13 -8 13 131
0 152 -6 9 -5 12 1 8 13 -8 12 71 -1 92 -6 9 -5 12 1 8 11 -7 12 107 1 118 -4
4 1 19 10 33 9 15 12 23 6 20 -7 -5 -10 23 -8 90 1 60 -3 102 -10 111 -7 10
-7 13 0 8 13 -8 13 131 0 152 -6 9 -5 12 1 8 13 -8 12 71 -1 92 -6 9 -5 12 1
8 11 -7 12 107 1 118 -4 4 1 19 10 33 9 15 12 23 6 20 -7 -5 -10 23 -8 90 1
60 -3 102 -10 111 -7 10 -7 13 0 8 13 -8 13 131 0 152 -6 9 -5 12 1 8 13 -8
12 71 -1 92 -6 9 -5 12 1 8 11 -7 12 107 1 118 -4 4 1 19 10 33 9 15 12 23 6
20 -7 -5 -10 23 -8 90 1 60 -3 102 -10 111 -7 10 -7 13 0 8 13 -8 13 131 0
152 -6 9 -5 12 1 8 13 -8 12 71 -1 92 -6 9 -5 12 1 8 11 -7 12 107 1 118 -4 4
1 19 10 33 9 15 12 23 6 20 -7 -5 -10 23 -8 90 1 60 -3 102 -10 111 -7 10 -7
13 0 8 13 -8 13 131 0 152 -6 9 -5 12 1 8 13 -8 12 71 -1 92 -6 9 -5 12 1 8
11 -7 12 107 1 118 -4 4 1 19 10 33 9 15 12 23 6 20 -7 -5 -10 23 -8 90 1 60
-3 102 -10 111 -7 10 -7 13 0 8 13 -8 13 131 0 152 -6 9 -5 12 1 8 13 -8 12
71 -1 92 -6 9 -5 12 1 8 11 -7 12 107 1 118 -4 4 1 19 10 33 9 15 12 23 6 20
-7 -5 -10 23 -8 90 1 60 -3 102 -10 111 -8 11 -8 13 1 8 13 -8 13 49 0 70 -4
6 -3 14 1 17 5 3 9 26 9 50 0 31 -3 43 -11 39 -6 -4 -5 1 3 10 16 20 25 19
-164 19 -86 0 -133 4 -137 12 -6 8 -8 8 -8 0 0 -16 -309 -16 -329 0 -10 7 -13
7 -8 0 4 -7 -39 -11 -143 -11 -104 0 -150 3 -150 11 0 8 -2 8 -8 0 -10 -15
-461 -16 -481 0 -11 8 -13 8 -8 0 9 -16 -143 -16 -162 0 -10 7 -13 7 -8 0 4
-7 -39 -11 -143 -11 -104 0 -150 3 -150 11 0 8 -2 8 -8 0 -5 -8 -59 -11 -174
-10 -91 0 -164 -2 -161 -6 2 -5 1 -8 -4 -8 -9 0 -8 -258 1 -267 3 -4 1 -12 -5
-20 -9 -10 -8 -13 2 -13 11 0 11 -3 -1 -11 -11 -8 -12 -12 -2 -16 6 -2 9 -9 6
-15 -8 -13 -8 -237 0 -245 3 -3 1 -12 -5 -20 -9 -10 -8 -13 2 -13 11 0 11 -3
-1 -11 -11 -8 -12 -12 -2 -16 6 -2 9 -10 5 -16 -8 -13 -7 -156 1 -164 3 -4 1
-12 -5 -20 -9 -10 -8 -13 2 -13 11 0 11 -2 -1 -10 -12 -8 -13 -11 -1 -19 8 -5
9 -11 3 -15 -10 -6 -9 -47 2 -65 3 -5 0 -12 -6 -14 -10 -4 -9 -6 1 -6 11 -1
11 -4 1 -16 -10 -12 -10 -15 1 -15 11 0 11 -3 -1 -11 -11 -8 -12 -12 -2 -16 6
-2 9 -9 6 -15 -8 -13 -8 -317 0 -325 3 -4 1 -12 -5 -20 -9 -10 -8 -13 2 -13
11 0 11 -3 -1 -11 -11 -8 -12 -12 -2 -16 6 -2 9 -9 6 -15 -8 -13 -8 -317 0
-325 3 -4 1 -12 -5 -20 -9 -10 -8 -13 2 -13 11 0 11 -2 -1 -10 -12 -8 -13 -11
-1 -19 8 -5 9 -11 3 -15 -10 -6 -9 -47 2 -65 3 -5 0 -12 -6 -14 -10 -4 -9 -6
1 -6 11 -1 11 -4 1 -16 -10 -12 -10 -15 1 -15 11 0 11 -3 -1 -11 -11 -8 -12
-12 -2 -16 6 -2 9 -10 5 -16 -8 -13 -7 -152 1 -166 4 -5 3 -12 -1 -14 -5 -3
-7 -30 -7 -61 1 -31 -1 -56 -4 -56 -3 0 -36 31 -74 70 -37 38 -68 68 -68 66 0
-2 -45 41 -100 95 -55 55 -105 99 -110 99 -6 0 -10 4 -10 10 0 5 -32 40 -71
77 -192 185 -244 237 -241 245 1 4 -1 7 -5 7 -18 -3 -36 2 -30 7 7 8 -42 54
-57 54 -5 0 -7 3 -3 6 8 8 -18 34 -33 34 -6 0 -8 5 -5 10 3 6 2 10 -4 10 -15
0 -159 148 -152 156 3 4 1 4 -5 1 -6 -3 -34 19 -62 49 -29 31 -52 53 -52 51 0
-2 -20 16 -45 41 -25 24 -45 49 -45 54 0 5 -4 6 -10 3 -5 -3 -10 2 -10 11 0
10 -3 15 -6 12 -3 -3 -35 23 -70 58 -36 35 -70 64 -75 64 -5 0 -9 4 -9 10 0
10 -83 94 -119 119 -11 8 -18 18 -15 23 3 4 1 8 -5 8 -5 0 -35 25 -66 55 -31
30 -60 55 -65 55 -6 0 -10 5 -10 10 0 6 -16 26 -35 46 -19 19 -35 31 -35 27 0
-4 -8 4 -18 20 -10 15 -22 24 -25 20 -4 -3 -7 1 -7 10 0 10 -4 17 -8 17 -5 0
-52 42 -105 94 -52 52 -98 91 -101 88 -3 -3 -6 0 -6 7 0 14 -77 91 -90 91 -5
0 -12 9 -15 20 -3 11 -11 20 -16 20 -15 0 -39 26 -32 34 4 3 2 6 -3 6 -14 0
-69 51 -67 61 2 5 -1 9 -5 9 -15 0 -52 37 -45 44 6 5 -12 10 -29 7 -5 0 -8 6
-8 14 0 8 -7 15 -15 15 -8 0 -15 6 -15 14 0 8 -9 18 -20 21 -11 3 -20 11 -20
16 0 13 -26 39 -39 39 -5 0 -13 9 -16 20 -3 11 -10 20 -15 20 -5 0 -16 8 -26
17 -16 17 -58 18 -592 18 -316 0 -577 -2 -580 -5z"/>
<path d="M13781 13910 c-5 -3 -8 -1208 -7 -2678 1 -1775 -2 -2672 -9 -2672 -7
0 -7 -3 0 -8 6 -4 10 -123 10 -320 0 -201 -4 -312 -10 -312 -7 0 -7 -3 0 -8 6
-4 10 -147 10 -392 l0 -385 1122 1 c617 0 1125 3 1130 7 4 4 1 17 -6 29 -7 11
-9 18 -4 15 11 -7 10 794 -1 812 -6 10 -5 12 2 7 8 -5 12 2 12 18 0 14 -6 26
-12 26 -9 0 -10 3 -2 8 14 9 14 43 0 61 -8 11 -8 13 2 7 8 -5 12 1 12 18 0 14
-6 26 -12 26 -9 0 -10 3 -2 8 14 9 14 43 0 61 -8 11 -8 13 2 7 8 -5 12 1 12
18 0 14 -6 26 -12 26 -9 0 -10 3 -2 8 14 9 14 43 0 61 -8 11 -8 13 2 7 8 -5
12 1 12 18 0 14 -6 26 -12 26 -9 0 -10 3 -2 8 14 9 14 43 0 61 -8 11 -8 13 2
7 8 -5 12 1 12 18 0 14 -6 26 -12 26 -9 0 -10 3 -2 8 14 9 14 43 0 61 -8 11
-8 13 2 7 8 -5 12 1 12 18 0 14 -6 26 -12 26 -9 0 -10 3 -2 8 14 9 14 43 0 61
-8 11 -8 13 2 7 8 -5 12 1 12 18 0 14 -6 26 -12 26 -9 0 -10 3 -2 8 14 9 14
43 0 61 -8 11 -8 13 2 7 8 -5 12 1 12 18 0 14 -6 26 -12 26 -9 0 -10 3 -2 8
14 9 14 43 0 61 -8 11 -8 13 2 7 8 -5 12 1 12 18 0 14 -6 26 -12 26 -9 0 -10
3 -2 8 7 5 10 75 10 210 -1 112 2 206 7 209 4 2 3 11 -4 19 -6 8 -9 17 -6 21
4 3 34 -22 68 -56 34 -33 66 -61 70 -61 5 0 9 -7 9 -17 0 -9 3 -13 7 -10 3 4
15 -5 25 -20 10 -16 18 -25 18 -20 0 4 38 -31 84 -78 46 -47 89 -85 95 -85 6
0 11 -5 11 -10 0 -6 13 -23 30 -38 16 -15 98 -93 181 -174 83 -82 156 -148
161 -148 5 0 6 -4 3 -10 -3 -5 -2 -10 3 -10 5 0 71 -61 146 -135 76 -74 142
-135 147 -135 5 0 9 -6 9 -14 0 -8 4 -16 10 -18 9 -3 201 -186 496 -474 68
-67 126 -119 129 -116 3 3 5 -2 5 -11 0 -9 7 -17 16 -17 8 0 12 -5 9 -10 -3
-6 -2 -10 2 -10 5 0 74 -63 153 -140 79 -77 148 -140 154 -140 5 0 7 -3 4 -6
-4 -3 12 -22 34 -42 37 -33 114 -107 339 -328 l67 -64 575 0 c416 0 577 4 579
12 2 6 1 33 -2 59 -4 26 -2 55 2 64 6 10 5 15 -3 15 -7 0 -8 4 -2 13 8 11 10
27 3 42 -5 12 -3 73 3 88 4 10 2 17 -4 17 -6 0 -7 6 -2 13 11 18 12 36 2 43
-5 3 -5 12 1 23 6 12 5 22 -2 29 -9 9 -8 12 3 12 12 0 12 2 -1 10 -12 8 -12
10 -1 10 10 0 11 3 2 14 -7 9 -8 17 -2 20 10 7 9 31 -2 42 -3 4 -2 15 4 25 7
13 6 19 -1 19 -6 0 -8 5 -4 12 10 17 11 68 0 68 -5 0 -4 6 2 13 5 6 6 21 2 32
-4 11 -3 28 2 38 6 11 5 17 -2 17 -6 0 -8 5 -3 13 11 18 12 36 2 43 -6 4 -6
10 0 17 14 18 14 29 1 37 -8 5 -9 13 -4 21 12 20 14 38 3 45 -5 3 -6 11 -2 17
10 17 13 37 4 37 -4 0 -7 9 -7 20 0 11 3 20 6 20 4 0 7 7 7 15 0 8 -4 15 -9
15 -5 0 -6 5 -2 12 11 17 10 68 0 68 -6 0 -6 4 0 10 7 7 8 28 4 55 -4 24 -3
51 2 59 6 10 5 16 -2 16 -6 0 -8 5 -3 13 11 18 12 36 2 43 -5 3 -5 12 1 23 6
12 5 22 -2 29 -9 9 -8 12 3 12 12 0 12 2 -1 10 -12 8 -12 10 -1 10 10 0 11 3
2 14 -7 9 -8 17 -2 20 7 5 8 32 1 44 -5 7 -2 71 3 85 4 10 2 17 -4 17 -6 0 -7
6 -2 13 11 18 12 36 2 43 -5 3 -5 12 1 23 6 12 5 22 -2 29 -9 9 -8 12 3 12 12
0 12 2 -1 10 -12 8 -12 10 -1 10 10 0 11 3 2 14 -7 9 -8 17 -2 20 10 7 9 31
-2 42 -3 4 -2 15 4 25 7 13 6 19 -1 19 -6 0 -8 5 -4 12 10 17 11 68 0 68 -5 0
-4 6 2 13 5 6 6 21 2 32 -4 11 -3 28 2 38 6 11 5 17 -2 17 -6 0 -8 5 -3 13 11
18 12 36 2 43 -6 3 -5 12 3 21 15 18 15 23 -2 33 -8 5 -9 13 -4 21 12 20 14
38 3 45 -5 3 -6 11 -2 17 10 17 13 37 4 37 -4 0 -7 9 -7 20 0 11 3 20 6 20 4
0 7 7 7 15 0 8 -4 15 -9 15 -5 0 -6 5 -2 12 11 17 10 68 0 68 -6 0 -6 4 0 10
7 7 8 28 4 55 -4 24 -3 51 2 59 6 10 5 16 -2 16 -6 0 -8 5 -3 13 11 18 12 36
2 43 -5 3 -5 12 1 23 6 12 5 22 -2 29 -9 9 -8 12 3 12 12 0 12 2 -1 10 -12 8
-12 10 -1 10 10 0 11 3 2 14 -7 9 -8 17 -2 20 7 5 8 32 1 44 -5 7 -2 71 3 85
4 10 2 17 -4 17 -6 0 -7 6 -2 13 11 18 12 36 2 43 -5 3 -5 12 1 23 6 12 5 22
-2 29 -9 9 -8 12 3 12 12 0 12 2 -1 10 -12 8 -12 10 -1 10 10 0 11 3 2 14 -7
9 -8 17 -2 20 10 7 9 31 -2 42 -3 4 -2 15 4 25 7 13 6 19 -1 19 -6 0 -8 5 -4
12 10 17 11 68 0 68 -5 0 -4 6 2 13 5 6 6 21 2 32 -4 11 -3 28 2 38 6 11 5 17
-2 17 -6 0 -8 5 -3 13 11 18 12 36 2 43 -5 3 -6 11 -2 17 11 17 10 31 0 38 -6
4 -6 13 -1 20 12 20 14 38 3 45 -5 3 -6 11 -2 17 10 17 13 37 4 37 -4 0 -7 9
-7 20 0 11 3 20 6 20 4 0 7 7 7 15 0 8 -4 15 -9 15 -5 0 -6 5 -2 12 11 17 10
68 -1 68 -5 0 -5 4 1 10 7 7 8 28 4 55 -4 24 -3 51 2 59 6 10 5 16 -2 16 -6 0
-8 5 -3 13 11 18 12 36 2 43 -5 3 -5 12 1 23 6 12 5 22 -2 29 -9 9 -8 12 2 12
13 0 13 2 0 10 -12 8 -12 10 -1 10 10 0 11 3 2 14 -7 9 -8 17 -2 20 7 5 8 32
1 44 -5 7 -2 71 3 85 4 10 2 17 -4 17 -6 0 -7 6 -2 13 11 18 12 36 2 43 -5 3
-5 12 1 23 6 12 5 22 -2 29 -9 9 -8 12 2 12 13 0 13 2 0 10 -12 8 -12 10 -1
10 10 0 11 3 2 14 -7 9 -8 17 -2 20 10 7 9 31 -2 42 -3 4 -2 15 4 25 7 13 6
19 -1 19 -6 0 -8 5 -4 12 10 17 11 68 0 68 -5 0 -4 6 2 13 5 6 6 21 2 32 -4
11 -3 28 2 38 6 11 5 17 -2 17 -6 0 -8 5 -3 13 11 18 12 36 2 43 -5 3 -6 11
-2 17 11 17 10 31 0 38 -6 4 -6 13 -1 20 12 20 14 38 3 45 -5 3 -6 11 -2 17
10 17 13 37 4 37 -4 0 -7 9 -7 20 0 11 3 20 6 20 4 0 7 7 7 15 0 8 -4 15 -9
15 -5 0 -6 5 -2 12 11 17 10 68 -1 68 -5 0 -5 4 1 10 7 7 8 28 4 55 -4 24 -3
51 2 59 6 10 5 16 -2 16 -6 0 -8 5 -3 13 11 18 12 36 2 43 -5 3 -5 12 1 23 6
12 5 22 -2 29 -9 9 -8 12 2 12 13 0 13 2 0 10 -12 8 -12 10 -1 10 10 0 11 3 2
14 -7 9 -8 17 -2 20 7 5 8 32 1 44 -5 7 -2 71 3 85 4 10 2 17 -4 17 -6 0 -7 6
-2 13 11 18 12 36 2 43 -5 3 -5 12 1 23 6 12 5 22 -2 29 -9 9 -8 12 2 12 13 0
13 2 0 10 -12 8 -12 10 -1 10 10 0 11 3 2 14 -7 9 -8 17 -2 20 10 7 9 31 -2
42 -3 4 -2 15 4 25 7 13 6 19 -1 19 -6 0 -8 5 -4 12 10 17 11 68 0 68 -5 0 -4
6 2 13 5 6 6 21 2 32 -4 11 -3 28 2 38 6 11 5 17 -2 17 -6 0 -8 5 -3 13 11 18
12 36 2 43 -5 3 -6 11 -2 17 11 17 10 31 0 38 -6 4 -6 13 -1 20 12 20 14 38 3
45 -5 3 -6 11 -2 17 10 17 13 37 4 37 -4 0 -7 9 -7 20 0 11 3 20 6 20 4 0 7 7
7 15 0 8 -4 15 -9 15 -5 0 -6 5 -2 12 11 17 10 68 -1 68 -5 0 -5 4 1 10 7 7 8
28 4 55 -4 24 -3 51 2 59 6 10 5 16 -2 16 -6 0 -8 5 -3 13 11 18 12 36 2 43
-5 3 -5 12 1 23 6 12 5 22 -2 29 -9 9 -8 12 2 12 13 0 13 2 0 10 -12 8 -12 10
-1 10 10 0 11 3 2 14 -7 9 -8 17 -2 20 7 5 8 32 1 44 -5 7 -2 71 3 85 4 10 2
17 -4 17 -6 0 -7 6 -2 13 14 22 10 54 -6 55 -9 1 -55 3 -103 3 -59 1 -88 5
-88 13 0 8 -2 8 -8 0 -10 -15 -461 -16 -481 0 -11 8 -13 8 -8 0 9 -16 -143
-16 -162 0 -10 7 -13 7 -8 0 4 -7 -39 -11 -143 -11 -104 0 -150 3 -150 11 0 8
-2 8 -8 0 -10 -15 -461 -16 -481 0 -10 8 -13 8 -8 0 4 -8 -43 -11 -163 -11
-119 0 -167 3 -163 11 4 7 2 7 -8 -1 -9 -7 -56 -11 -136 -10 -108 2 -123 0
-133 -17 -6 -10 -7 -15 -2 -12 5 3 9 -15 9 -44 -1 -27 -5 -46 -11 -43 -5 4 -6
1 0 -8 13 -21 13 -69 0 -69 -7 0 -7 -3 -1 -8 12 -9 15 -222 3 -222 -5 0 -6 -6
-1 -12 10 -17 11 -139 1 -160 -5 -10 -4 -19 2 -23 13 -8 9 -55 -5 -55 -6 0 -7
-3 0 -8 14 -10 16 -134 2 -125 -6 4 -7 1 -2 -8 13 -20 14 -160 2 -152 -6 4 -7
1 -2 -8 13 -20 14 -160 2 -152 -6 4 -7 1 -2 -8 13 -20 14 -160 2 -152 -6 4 -7
1 -1 -8 12 -20 12 -151 0 -168 -8 -11 -8 -13 0 -8 8 4 11 -9 11 -43 -1 -27 -5
-46 -11 -43 -5 4 -6 1 0 -8 13 -21 13 -69 0 -69 -7 0 -7 -3 -1 -8 12 -9 15
-222 3 -222 -5 0 -6 -6 -1 -12 10 -17 11 -139 1 -160 -5 -10 -4 -19 2 -23 13
-8 9 -55 -5 -55 -7 0 -7 -3 0 -8 6 -4 10 -52 10 -110 0 -81 -3 -101 -13 -97
-8 3 -16 5 -18 5 -3 0 -2 5 1 10 3 6 2 10 -3 10 -6 0 -62 52 -126 115 -64 63
-116 113 -116 110 0 -2 -13 10 -30 27 -16 16 -30 34 -30 39 0 5 -4 9 -8 9 -14
0 -52 36 -52 49 0 7 -4 9 -10 6 -5 -3 -10 2 -10 11 0 10 -3 15 -6 11 -8 -8
-44 25 -38 35 3 4 0 8 -7 8 -6 0 -26 15 -43 33 -17 17 -34 31 -38 30 -5 -2 -8
1 -8 6 0 12 -68 80 -74 74 -2 -3 -7 5 -11 16 -3 12 -13 21 -21 21 -8 0 -14 8
-14 17 0 9 -3 14 -6 10 -8 -7 -34 17 -34 32 0 6 -4 11 -9 11 -6 0 -70 59 -143
130 -73 72 -136 130 -140 130 -4 0 -8 8 -8 17 0 9 -2 14 -6 11 -3 -3 -57 45
-120 108 -64 63 -120 114 -125 114 -6 0 -8 4 -5 8 3 5 -6 15 -19 22 -13 7 -22
16 -20 20 2 4 -7 12 -20 18 -14 7 -25 19 -25 28 0 10 -2 15 -5 12 -7 -7 -201
182 -198 193 2 5 -3 6 -10 4 -6 -3 -21 8 -32 24 -10 16 -23 27 -27 25 -4 -3
-8 2 -8 10 0 9 -6 16 -12 16 -7 0 -24 14 -37 30 -13 17 -29 30 -37 30 -8 0
-13 4 -12 8 4 12 -118 132 -132 132 -6 0 -8 5 -5 10 3 6 1 10 -5 10 -6 0 -8 5
-5 10 4 6 3 10 -2 9 -20 -3 -34 2 -28 11 3 6 -1 10 -10 10 -9 0 -13 5 -10 10
3 6 3 10 -2 10 -14 0 -63 47 -56 54 3 3 2 6 -4 6 -6 0 -41 29 -78 65 -36 36
-71 65 -76 65 -5 0 -8 3 -7 8 4 9 -91 102 -104 102 -5 0 -6 5 -3 10 3 6 2 10
-3 10 -13 0 -121 108 -114 114 3 4 -1 6 -10 6 -8 0 -30 17 -49 38 l-34 37
-573 0 c-316 0 -577 -2 -581 -5z"/>
</g>
</svg>
